<svg width="14" height="14" viewBox="0 0 14 14" fill="none" xmlns="http://www.w3.org/2000/svg">
<path d="M12.8333 0H1.16667C0.857247 0 0.560501 0.122916 0.341709 0.341709C0.122916 0.560501 0 0.857247 0 1.16667V12.8333C0 13.1428 0.122916 13.4395 0.341709 13.6583C0.560501 13.8771 0.857247 14 1.16667 14H12.8333C13.1428 14 13.4395 13.8771 13.6583 13.6583C13.8771 13.4395 14 13.1428 14 12.8333V1.16667C14 0.857247 13.8771 0.560501 13.6583 0.341709C13.4395 0.122916 13.1428 0 12.8333 0ZM5.83333 10.2083L2.91667 7.31657L3.84463 6.41667L5.83333 8.36827L10.1551 4.08333L11.0836 5.00337L5.83333 10.2083Z" fill="#161616"/>
</svg>
